<svg width="64" height="89" viewBox="0 0 64 89" fill="none" xmlns="http://www.w3.org/2000/svg">
<path fill-rule="evenodd" clipRule="evenodd" d="M0.119141 16.9864C0.119141 7.60508 7.72422 0 17.1056 0H46.8945C56.2759 0 63.881 7.60508 63.881 16.9864C63.881 22.5017 61.2524 27.4031 57.1797 30.5062C61.2524 33.6092 63.881 38.5106 63.881 44.026C63.881 49.5414 61.2523 54.4428 57.1796 57.5459C61.2523 60.6489 63.881 65.5504 63.881 71.0658C63.881 80.4471 56.2759 88.0522 46.8945 88.0522H17.1056C7.72421 88.0522 0.119141 80.4471 0.119141 71.0658C0.119141 65.5504 2.74776 60.6489 6.82054 57.5459C2.74776 54.4428 0.119141 49.5414 0.119141 44.026C0.119141 38.5106 2.74769 33.6093 6.82038 30.5062C2.74769 27.4031 0.119141 22.5017 0.119141 16.9864Z" fill="#F0EFEF"/>
</svg>
