<svg xmlns="http://www.w3.org/2000/svg" width="294" height="638" viewBox="0 0 294 638" fill="none">
<path d="M293.955 33.4177C293.955 29.6273 293.832 25.8368 293.63 22.0519C293.03 10.8487 282.849 0.464134 271.576 0.183774C258.542 -0.141445 245.496 0.0548078 232.456 0.0996656C229.267 0.11088 227.383 2.16312 227.338 5.38727C227.293 8.71795 227.394 12.0542 227.288 15.3849C227.058 22.6182 221.81 27.704 214.612 27.704C169.382 27.7152 124.158 27.7152 78.9281 27.704C72.0438 27.704 66.9143 22.4724 66.875 15.5251C66.8582 12.5645 66.8918 9.59829 66.8694 6.63768C66.8358 2.02294 64.8792 0.0716295 60.2822 0.0716295C48.3525 0.0660223 36.4171 0.0716295 24.4874 0.0716295C10.8982 0.0716295 0.00560609 11.0001 0.00560609 24.6144C0.00560609 122.752 0.00560609 220.889 0.00560609 319.027C0.00560609 417.069 0.0112122 515.117 0 613.159C0 627.149 10.7525 637.971 24.7677 637.971C69.2576 637.971 113.742 637.971 158.232 637.971C195.041 637.971 231.857 637.954 268.666 638.004C273.515 638.01 278.028 637.006 282.138 634.444C290.967 628.938 294 620.594 294 610.58C293.966 418.196 293.972 225.807 293.955 33.4233V33.4177Z" fill="black"/>
</svg>